<svg width="204" height="215" viewBox="0 0 204 215" fill="none" xmlns="http://www.w3.org/2000/svg">
<path d="M168.629 164C170.229 152.4 165.295 148.5 162.629 148C159.029 147.6 156.795 149.5 156.129 150.5C153.729 153.3 147.462 158 144.629 160C142.629 161.5 137.129 164.5 135.629 165.5C134.429 166.3 132.795 167.5 132.129 168C129.329 170.4 130.295 173.333 131.129 174.5C133.529 177.3 136.129 176.333 137.129 175.5C145.529 168.3 150.629 166.833 152.129 167H164.629C167.029 167 168.295 165 168.629 164Z" fill="#FDBFBD"/>
<path d="M179.129 181C180.329 185.8 175.295 188 172.629 188.5C165.829 189.7 142.462 190 131.629 190C130.829 190 130.962 188.333 131.129 187.5C131.529 185.9 133.962 184.5 135.129 184C136.729 183.2 141.462 183 143.629 183H157.629C160.829 183 162.296 181 162.629 180C165.029 173.6 169.629 172.333 171.629 172.5C176.429 172.5 178.629 178.167 179.129 181Z" fill="#FDBFBD"/>
<path d="M163.629 197C156.429 199 150.296 196.833 148.129 195.5C146.376 193.998 142.182 193.592 138.268 193.622C135.721 193.581 130.829 193.6 131.629 194C132.429 194.4 139.295 199.833 142.629 202.5L154.629 211.5C160.229 215.5 164.629 214.5 166.129 213.5C174.129 209.1 176.462 200.667 176.629 197C176.629 192 173.629 194 173.129 194C170.729 195.2 165.796 196.5 163.629 197Z" fill="#FDBFBD"/>
<path d="M120.629 164.5C109.029 164.5 94.4622 159.833 88.6289 157.5C77.0289 171.5 72.7955 182.667 72.1289 186.5C90.5289 190.1 105.462 190.333 110.629 190C118.229 190 120.462 173 120.629 164.5Z" fill="#FDBFBD"/>
<path d="M63.1289 181.5C70.3289 176.3 77.4622 160.667 80.1289 153.5C74.9289 145.5 67.2955 140.5 64.1289 139C59.7289 142.6 50.6289 147.833 46.6289 150C35.4289 155.2 31.2955 162.167 30.6289 165C38.2289 175.4 47.4622 180.667 51.1289 182C57.9289 184 61.9622 182.5 63.1289 181.5Z" fill="#FDBFBD"/>
<path d="M48.6289 134C39.4289 139.6 27.1289 150.333 22.1289 155C11.7289 149.4 5.12888 134.333 3.12888 127.5C1.52887 119.9 6.12888 118.333 8.62888 118.5C29.4289 118.5 49.9622 119.833 57.6289 120.5C62.0289 120.9 61.4622 123.333 60.6289 124.5C57.8289 128.1 51.4622 132.333 48.6289 134Z" fill="#FDBFBD"/>
<path d="M55.6289 85.4999C67.6289 95.4999 59.6289 106.667 54.1289 111C40.4622 110.333 12.0289 108.8 7.62888 108C3.22888 107.2 1.4622 100.333 1.12888 96.9999C0.328873 87.3999 3.4622 76.3332 5.12888 71.9999C7.29555 67.3332 14.4289 59.3999 25.6289 64.9999C36.8289 70.5999 50.2955 80.9999 55.6289 85.4999Z" fill="#FDBFBD"/>
<path d="M64.1289 80.9999C51.7289 76.1999 36.9622 62.6666 31.1289 56.4999C27.5289 52.0999 29.6289 47 31.1289 45C51.9289 18.2 80.7956 12.1667 92.6289 12.5C96.2289 -3.1 101.796 2.33333 104.129 7C106.929 12.2 115.629 7.5 119.629 4.5C118.029 10.1 120.629 10.5 122.129 10L138.629 3C137.829 7.4 139.629 7.83333 140.629 7.5L157.629 1C155.629 6.2 158.462 6.83333 160.129 6.5L178.129 2.5C177.329 5.7 178.796 6.16667 179.629 6L194.629 4.49997C205.029 4.09997 203.629 6.33331 201.629 7.49997C190.029 13.5 171.462 18 163.629 19.5C159.962 20.1666 150.929 22.1 144.129 24.5C135.629 27.5 129.629 33 127.629 36.5C126.029 39.3 128.629 42 130.129 43C136.529 46.6 147.795 44.1666 152.629 42.5C160.629 39.8333 177.629 34.4 181.629 34C185.629 33.6 183.962 34.8333 182.629 35.5C175.795 38.1666 160.929 43.8 156.129 45C151.329 46.2 154.129 48.1666 156.129 49C167.629 54 191.929 64.7999 197.129 68C202.329 71.2 198.962 70.6666 196.629 70C183.796 64.8333 156.529 54.0999 150.129 52.4999C143.729 50.8999 137.462 51.4999 135.129 51.9999C132.962 52.6666 128.629 54.7999 128.629 57.9999C128.629 61.1999 135.629 63.9999 139.129 64.9999C126.329 70.1999 115.796 66.4999 112.129 63.9999C109.129 67.8333 100.329 76.5999 89.1289 80.9999C77.9289 85.3999 67.7955 82.8333 64.1289 80.9999Z" fill="#FDBFBD"/>
<path d="M85.6289 93C80.4289 98.6 73.1289 95.3333 70.1289 93C68.7956 97.5 67.2289 107.6 71.6289 112C76.0289 116.4 80.1289 113.833 81.6289 112C84.4622 108.5 90.3289 99.8 91.1289 93C91.9289 86.2 87.7956 90.1667 85.6289 93Z" fill="#FDBFBD"/>
<path d="M82.6289 119.5C75.8289 117.5 72.4622 122 71.6289 124.5C77.6289 134.5 85.4622 140 88.6289 141.5V132L82.6289 119.5Z" fill="#FDBFBD"/>
<path d="M132.129 194C133.688 193.813 135.928 193.64 138.268 193.622M138.268 193.622C142.182 193.592 146.376 193.998 148.129 195.5C150.296 196.833 156.429 199 163.629 197C165.796 196.5 170.729 195.2 173.129 194C173.629 194 176.629 192 176.629 197C176.462 200.667 174.129 209.1 166.129 213.5C164.629 214.5 160.229 215.5 154.629 211.5L142.629 202.5C139.295 199.833 132.429 194.4 131.629 194C130.829 193.6 135.721 193.581 138.268 193.622ZM162.629 148C165.295 148.5 170.229 152.4 168.629 164C168.295 165 167.029 167 164.629 167H152.129C150.629 166.833 145.529 168.3 137.129 175.5C136.129 176.333 133.529 177.3 131.129 174.5C130.295 173.333 129.329 170.4 132.129 168C132.795 167.5 134.429 166.3 135.629 165.5C137.129 164.5 142.629 161.5 144.629 160C147.462 158 153.729 153.3 156.129 150.5C156.795 149.5 159.029 147.6 162.629 148ZM131.629 190C142.462 190 165.829 189.7 172.629 188.5C175.295 188 180.329 185.8 179.129 181C178.629 178.167 176.429 172.5 171.629 172.5C169.629 172.333 165.029 173.6 162.629 180C162.296 181 160.829 183 157.629 183H143.629C141.462 183 136.729 183.2 135.129 184C133.962 184.5 131.529 185.9 131.129 187.5C130.962 188.333 130.829 190 131.629 190ZM88.6289 157.5C94.4622 159.833 109.029 164.5 120.629 164.5C120.462 173 118.229 190 110.629 190C105.462 190.333 90.5289 190.1 72.1289 186.5C72.7955 182.667 77.0289 171.5 88.6289 157.5ZM80.1289 153.5C77.4622 160.667 70.3289 176.3 63.1289 181.5C61.9622 182.5 57.9289 184 51.1289 182C47.4622 180.667 38.2289 175.4 30.6289 165C31.2955 162.167 35.4289 155.2 46.6289 150C50.6289 147.833 59.7289 142.6 64.1289 139C67.2955 140.5 74.9289 145.5 80.1289 153.5ZM22.1289 155C27.1289 150.333 39.4289 139.6 48.6289 134C51.4622 132.333 57.8289 128.1 60.6289 124.5C61.4622 123.333 62.0289 120.9 57.6289 120.5C49.9622 119.833 29.4289 118.5 8.62888 118.5C6.12888 118.333 1.52888 119.9 3.12888 127.5C5.12888 134.333 11.7289 149.4 22.1289 155ZM54.1289 111C59.6289 106.667 67.6289 95.4999 55.6289 85.4999C50.2955 80.9999 36.8289 70.5999 25.6289 64.9999C14.4289 59.3999 7.29554 67.3332 5.12888 71.9999C3.46221 76.3332 0.328876 87.3999 1.12888 96.9999C1.46221 100.333 3.22888 107.2 7.62888 108C12.0289 108.8 40.4622 110.333 54.1289 111ZM31.1289 56.4999C36.9622 62.6666 51.7289 76.1999 64.1289 80.9999C67.7955 82.8333 77.9289 85.3999 89.1289 80.9999C100.329 76.5999 109.129 67.8333 112.129 63.9999C115.796 66.4999 126.329 70.1999 139.129 64.9999C135.629 63.9999 128.629 61.1999 128.629 57.9999C128.629 54.7999 132.962 52.6666 135.129 51.9999C137.462 51.4999 143.729 50.8999 150.129 52.4999C156.529 54.0999 183.796 64.8333 196.629 70C198.962 70.6666 202.329 71.2 197.129 68C191.929 64.7999 167.629 54 156.129 49C154.129 48.1666 151.329 46.2 156.129 45C160.929 43.8 175.795 38.1666 182.629 35.5C183.962 34.8333 185.629 33.6 181.629 34C177.629 34.4 160.629 39.8333 152.629 42.5C147.795 44.1666 136.529 46.6 130.129 43C128.629 42 126.029 39.3 127.629 36.5C129.629 33 135.629 27.5 144.129 24.5C150.929 22.1 159.962 20.1666 163.629 19.5C171.462 18 190.029 13.5 201.629 7.49997C203.629 6.33331 205.029 4.09997 194.629 4.49997L179.629 6C178.796 6.16667 177.329 5.7 178.129 2.5L160.129 6.5C158.462 6.83333 155.629 6.2 157.629 1L140.629 7.5C139.629 7.83333 137.829 7.4 138.629 3L122.129 10C120.629 10.5 118.029 10.1 119.629 4.5C115.629 7.5 106.929 12.2 104.129 7C101.796 2.33333 96.2289 -3.1 92.6289 12.5C80.7956 12.1667 51.9289 18.2 31.1289 45C29.6289 47 27.5289 52.0999 31.1289 56.4999ZM70.1289 93C73.1289 95.3333 80.4289 98.6 85.6289 93C87.7956 90.1667 91.9289 86.2 91.1289 93C90.3289 99.8 84.4622 108.5 81.6289 112C80.1289 113.833 76.0289 116.4 71.6289 112C67.2289 107.6 68.7956 97.5 70.1289 93ZM71.6289 124.5C72.4622 122 75.8289 117.5 82.6289 119.5L88.6289 132V141.5C85.4622 140 77.6289 134.5 71.6289 124.5Z" stroke="#927474"/>
</svg>
