<svg width="31" height="30" viewBox="0 0 31 30" fill="none" xmlns="http://www.w3.org/2000/svg">
<rect width="30.9677" height="30" fill="white"/>
<path d="M21.2605 3.75515C21.476 3.7739 21.5702 4.0289 21.4153 4.17765L10.6798 14.5777C10.5586 14.6952 10.4717 14.8419 10.4282 15.0027L9.1379 19.7902C9.09531 19.9484 9.09617 20.1146 9.14039 20.2724C9.18462 20.4302 9.27068 20.574 9.39002 20.6897C9.50937 20.8053 9.65785 20.8886 9.82073 20.9315C9.98361 20.9743 10.1552 20.9752 10.3185 20.9339L15.2592 19.6839C15.4253 19.6414 15.5767 19.5568 15.6979 19.4389L26.5856 8.8914C26.6197 8.85753 26.6631 8.83381 26.7106 8.82307C26.7582 8.81233 26.8079 8.815 26.8539 8.83079C26.8999 8.84657 26.9403 8.87479 26.9703 8.91212C27.0003 8.94944 27.0186 8.99431 27.0231 9.0414C27.4763 13.2284 27.4503 17.4512 26.9456 21.6327C26.6579 24.0139 24.6824 25.8827 22.2334 26.1489C17.7478 26.6303 13.221 26.6303 8.73532 26.1489C6.285 25.8827 4.30952 24.0139 4.02177 21.6327C3.49014 17.2264 3.49014 12.7752 4.02177 8.3689C4.30952 5.9864 6.285 4.11765 8.73532 3.85265C12.896 3.40587 17.0929 3.3732 21.2605 3.75515Z" fill="#A4D0FF"/>
<path d="M22.9977 5.2964C23.0277 5.2673 23.0633 5.24421 23.1025 5.22845C23.1417 5.2127 23.1837 5.20459 23.2261 5.20459C23.2686 5.20459 23.3106 5.2127 23.3498 5.22845C23.3889 5.24421 23.4245 5.2673 23.4545 5.2964L25.279 7.06515C25.3393 7.12373 25.3732 7.20306 25.3732 7.28577C25.3732 7.36848 25.3393 7.44782 25.279 7.5064L14.5784 17.8751C14.5377 17.9144 14.4869 17.9425 14.4313 17.9564L11.9616 18.5814C11.9072 18.5952 11.85 18.5949 11.7957 18.5806C11.7414 18.5663 11.6919 18.5385 11.6521 18.5C11.6123 18.4614 11.5836 18.4135 11.5689 18.3609C11.5541 18.3083 11.5539 18.2529 11.5681 18.2001L12.2132 15.8076C12.2276 15.7538 12.2565 15.7046 12.2971 15.6651L22.9977 5.2964Z" fill="#A4D0FF"/>
</svg>
