<svg width="26" height="26" viewBox="0 0 26 26" fill="none" xmlns="http://www.w3.org/2000/svg">
<path d="M13 6.5C13.2873 6.5 13.5629 6.61414 13.766 6.8173C13.9692 7.02047 14.0833 7.29602 14.0833 7.58333V11.9167H18.4167C18.704 11.9167 18.9795 12.0308 19.1827 12.234C19.3859 12.4371 19.5 12.7127 19.5 13C19.5 13.2873 19.3859 13.5629 19.1827 13.766C18.9795 13.9692 18.704 14.0833 18.4167 14.0833H14.0833V18.4167C14.0833 18.704 13.9692 18.9795 13.766 19.1827C13.5629 19.3859 13.2873 19.5 13 19.5C12.7127 19.5 12.4371 19.3859 12.234 19.1827C12.0308 18.9795 11.9167 18.704 11.9167 18.4167V14.0833H7.58333C7.29602 14.0833 7.02047 13.9692 6.8173 13.766C6.61414 13.5629 6.5 13.2873 6.5 13C6.5 12.7127 6.61414 12.4371 6.8173 12.234C7.02047 12.0308 7.29602 11.9167 7.58333 11.9167H11.9167V7.58333C11.9167 7.29602 12.0308 7.02047 12.234 6.8173C12.4371 6.61414 12.7127 6.5 13 6.5Z" fill="black"/>
<path fill-rule="evenodd" clip-rule="evenodd" d="M5.41699 23.8332C4.55504 23.8332 3.72839 23.4908 3.1189 22.8813C2.5094 22.2718 2.16699 21.4451 2.16699 20.5832V5.4165C2.16699 4.55455 2.5094 3.7279 3.1189 3.11841C3.72839 2.50891 4.55504 2.1665 5.41699 2.1665H20.5837C21.4456 2.1665 22.2723 2.50891 22.8818 3.11841C23.4912 3.7279 23.8337 4.55455 23.8337 5.4165V20.5832C23.8337 21.4451 23.4912 22.2718 22.8818 22.8813C22.2723 23.4908 21.4456 23.8332 20.5837 23.8332H5.41699ZM4.33366 20.5832C4.33366 20.8705 4.4478 21.146 4.65096 21.3492C4.85412 21.5524 5.12967 21.6665 5.41699 21.6665H20.5837C20.871 21.6665 21.1465 21.5524 21.3497 21.3492C21.5529 21.146 21.667 20.8705 21.667 20.5832V5.4165C21.667 5.12919 21.5529 4.85364 21.3497 4.65047C21.1465 4.44731 20.871 4.33317 20.5837 4.33317H5.41699C5.12967 4.33317 4.85412 4.44731 4.65096 4.65047C4.4478 4.85364 4.33366 5.12919 4.33366 5.4165V20.5832Z" fill="black"/>
</svg>
