<svg width="23" height="24" viewBox="0 0 23 24" fill="none" xmlns="http://www.w3.org/2000/svg">
<path fill-rule="evenodd" clip-rule="evenodd" d="M11.8367 9.24859C11.6211 9.02356 11.5 8.71839 11.5 8.40019C11.5 8.082 11.6211 7.77683 11.8367 7.5518L15.2867 3.95179C15.3928 3.83718 15.5197 3.74576 15.66 3.68287C15.8003 3.61998 15.9512 3.58688 16.1039 3.58549C16.2566 3.58411 16.408 3.61447 16.5494 3.67481C16.6907 3.73515 16.8191 3.82425 16.9271 3.93692C17.035 4.04959 17.1204 4.18357 17.1782 4.33105C17.2361 4.47853 17.2652 4.63654 17.2638 4.79588C17.2625 4.95521 17.2308 5.11268 17.1705 5.25908C17.1103 5.40548 17.0226 5.5379 16.9128 5.64859L13.4628 9.24859C13.2471 9.47356 12.9547 9.59994 12.6498 9.59994C12.3448 9.59994 12.0524 9.47356 11.8367 9.24859Z" fill="black"/>
<path fill-rule="evenodd" clip-rule="evenodd" d="M20.3628 9.2484C20.1471 9.47336 19.8547 9.59974 19.5497 9.59974C19.2448 9.59974 18.9523 9.47336 18.7367 9.2484L15.2867 5.6484C15.0772 5.42208 14.9613 5.11895 14.9639 4.80432C14.9665 4.48968 15.0875 4.18871 15.3007 3.96622C15.5139 3.74373 15.8023 3.61753 16.1039 3.61479C16.4054 3.61206 16.6959 3.73301 16.9128 3.9516L20.3628 7.5516C20.5784 7.77663 20.6995 8.0818 20.6995 8.4C20.6995 8.7182 20.5784 9.02337 20.3628 9.2484Z" fill="black"/>
<path fill-rule="evenodd" clip-rule="evenodd" d="M16.0995 6C16.4045 6 16.697 6.12643 16.9127 6.35147C17.1284 6.57652 17.2495 6.88174 17.2495 7.2V16.8C17.2495 17.1183 17.1284 17.4235 16.9127 17.6485C16.697 17.8736 16.4045 18 16.0995 18C15.7945 18 15.502 17.8736 15.2864 17.6485C15.0707 17.4235 14.9495 17.1183 14.9495 16.8V7.2C14.9495 6.88174 15.0707 6.57652 15.2864 6.35147C15.502 6.12643 15.7945 6 16.0995 6ZM11.1626 14.7516C11.3782 14.9766 11.4993 15.2818 11.4993 15.6C11.4993 15.9182 11.3782 16.2234 11.1626 16.4484L7.71259 20.0484C7.4957 20.267 7.20521 20.3879 6.90368 20.3852C6.60215 20.3825 6.31372 20.2563 6.1005 20.0338C5.88728 19.8113 5.76634 19.5103 5.76372 19.1957C5.7611 18.881 5.87701 18.5779 6.08649 18.3516L9.53649 14.7516C9.75215 14.5266 10.0446 14.4003 10.3495 14.4003C10.6545 14.4003 10.9469 14.5266 11.1626 14.7516Z" fill="black"/>
<path fill-rule="evenodd" clip-rule="evenodd" d="M2.63651 14.7517C2.85217 14.5268 3.14462 14.4004 3.44956 14.4004C3.7545 14.4004 4.04695 14.5268 4.26261 14.7517L7.71261 18.3517C7.82245 18.4624 7.91006 18.5948 7.97033 18.7412C8.0306 18.8877 8.06232 19.0451 8.06365 19.2045C8.06497 19.3638 8.03588 19.5218 7.97805 19.6693C7.92023 19.8168 7.83484 19.9507 7.72686 20.0634C7.61889 20.1761 7.49049 20.2652 7.34916 20.3255C7.20783 20.3859 7.05639 20.4162 6.9037 20.4148C6.751 20.4135 6.6001 20.3803 6.45979 20.3175C6.31949 20.2546 6.19259 20.1631 6.08651 20.0485L2.63651 16.4485C2.42092 16.2235 2.2998 15.9183 2.2998 15.6001C2.2998 15.2819 2.42092 14.9768 2.63651 14.7517Z" fill="black"/>
<path fill-rule="evenodd" clip-rule="evenodd" d="M6.9 18C6.595 18 6.30249 17.8736 6.08683 17.6485C5.87116 17.4235 5.75 17.1183 5.75 16.8V7.2C5.75 6.88174 5.87116 6.57652 6.08683 6.35147C6.30249 6.12643 6.595 6 6.9 6C7.205 6 7.49751 6.12643 7.71317 6.35147C7.92884 6.57652 8.05 6.88174 8.05 7.2V16.8C8.05 17.1183 7.92884 17.4235 7.71317 17.6485C7.49751 17.8736 7.205 18 6.9 18Z" fill="black"/>
</svg>
