<svg width="30" height="30" viewBox="0 0 30 30" fill="none" xmlns="http://www.w3.org/2000/svg">
<path fill-rule="evenodd" clip-rule="evenodd" d="M12.2173 6.2498L4.69727 4.9248L4.91477 3.6923C4.9291 3.61144 4.95922 3.5342 5.00342 3.46498C5.04762 3.39577 5.10502 3.33595 5.17236 3.28893C5.23969 3.24192 5.31562 3.20863 5.39582 3.19098C5.47602 3.17333 5.55892 3.17165 5.63977 3.18605L23.0135 6.2498H23.1235H23.0148L25.3335 6.65855C25.4145 6.67274 25.4919 6.70276 25.5612 6.74689C25.6306 6.79103 25.6905 6.84841 25.7377 6.91576C25.7848 6.98311 25.8182 7.05909 25.836 7.13936C25.8537 7.21963 25.8554 7.30261 25.841 7.38355L25.6235 8.61355L23.011 8.15355L22.011 25.146C21.9737 25.7821 21.695 26.38 21.2318 26.8174C20.7685 27.2549 20.1557 27.499 19.5185 27.4998H10.4823C9.84445 27.4999 9.2307 27.2563 8.76665 26.8187C8.30259 26.3812 8.02333 25.7828 7.98602 25.146L6.98727 8.1248H22.8498L12.2173 6.2498ZM11.2498 11.2498L11.8748 22.4998H13.7498L13.2498 11.2498H11.2498ZM16.8748 11.2498L16.2498 22.4998H18.1248L18.7498 11.2498H16.8748ZM13.5673 1.41105L18.4923 2.27855C18.5731 2.29288 18.6504 2.32301 18.7196 2.3672C18.7888 2.4114 18.8486 2.46881 18.8956 2.53614C18.9426 2.60347 18.9759 2.67941 18.9936 2.75961C19.0112 2.83981 19.0129 2.9227 18.9985 3.00355L18.781 4.23355L12.626 3.14855L12.8435 1.9173C12.8578 1.83644 12.888 1.7592 12.9322 1.68998C12.9764 1.62077 13.0338 1.56095 13.1011 1.51393C13.1684 1.46692 13.2444 1.43363 13.3246 1.41598C13.4048 1.39833 13.4864 1.39665 13.5673 1.41105Z" fill="#FF8989"/>
</svg>
