<svg width="26" height="26" viewBox="0 0 26 26" fill="none" xmlns="http://www.w3.org/2000/svg">
<path d="M13.856 12.3704L13.7477 12.3076V8.28084C13.7403 8.08794 13.6585 7.90539 13.5195 7.77151C13.3804 7.63764 13.1949 7.56285 13.0018 7.56285C12.8088 7.56285 12.6232 7.63764 12.4842 7.77151C12.3451 7.90539 12.2633 8.08794 12.2559 8.28084V8.374H12.7543C12.7988 8.374 12.8415 8.3917 12.873 8.42319C12.9045 8.45468 12.9222 8.49739 12.9222 8.54192C12.9222 8.58646 12.9045 8.62917 12.873 8.66066C12.8415 8.69215 12.7988 8.70984 12.7543 8.70984H12.2559V9.15075H12.7543C12.7988 9.15075 12.8415 9.16845 12.873 9.19994C12.9045 9.23143 12.9222 9.27414 12.9222 9.31867C12.9222 9.36321 12.9045 9.40592 12.873 9.43741C12.8415 9.4689 12.7988 9.48659 12.7543 9.48659H12.2559V9.9275H12.7543C12.7988 9.9275 12.8415 9.9452 12.873 9.97669C12.9045 10.0082 12.9222 10.0509 12.9222 10.0954C12.9222 10.14 12.9045 10.1827 12.873 10.2142C12.8415 10.2456 12.7988 10.2633 12.7543 10.2633H12.2559V12.3087L12.1476 12.3704C11.815 12.5594 11.5542 12.8532 11.406 13.2059C11.2578 13.5586 11.2304 13.9504 11.3282 14.3203C11.4259 14.6902 11.6433 15.0173 11.9464 15.2508C12.2496 15.4842 12.6214 15.6108 13.004 15.6108C13.3866 15.6108 13.7584 15.4842 14.0615 15.2508C14.3646 15.0173 14.582 14.6902 14.6798 14.3203C14.7775 13.9504 14.7502 13.5586 14.6019 13.2059C14.4537 12.8532 14.193 12.5594 13.8604 12.3704H13.856ZM13.0002 15.1524C12.7196 15.1509 12.4474 15.057 12.2255 14.8853C12.0037 14.7136 11.8445 14.4736 11.7726 14.2024C11.7008 13.9312 11.7202 13.6439 11.8279 13.3848C11.9356 13.1258 12.1256 12.9094 12.3686 12.7691C12.4713 12.7103 12.5566 12.6255 12.616 12.5231C12.6753 12.4208 12.7066 12.3046 12.7066 12.1863V10.9415C12.7066 10.8639 12.7374 10.7895 12.7923 10.7347C12.8471 10.6798 12.9215 10.649 12.9991 10.649C13.0767 10.649 13.1511 10.6798 13.2059 10.7347C13.2608 10.7895 13.2916 10.8639 13.2916 10.9415V12.1765C13.2915 12.2951 13.3229 12.4116 13.3824 12.5142C13.442 12.6167 13.5276 12.7017 13.6307 12.7604C13.8736 12.9007 14.0637 13.1171 14.1714 13.3761C14.2791 13.6352 14.2985 13.9225 14.2266 14.1937C14.1548 14.4649 13.9956 14.7049 13.7738 14.8766C13.5519 15.0483 13.2797 15.1422 12.9991 15.1438L13.0002 15.1524ZM19.7439 4.56717H6.25752C5.49132 4.56774 4.75665 4.8723 4.21476 5.41398C3.67288 5.95566 3.36805 6.69022 3.36719 7.45642V20.9428C3.36776 21.7092 3.67246 22.4441 4.21438 22.986C4.7563 23.5279 5.49113 23.8326 6.25752 23.8332H19.7439C20.5101 23.8323 21.2447 23.5275 21.7864 22.9856C22.3281 22.4437 22.6326 21.709 22.6332 20.9428V7.45642C22.6323 6.69041 22.3277 5.95602 21.786 5.41436C21.2443 4.87271 20.51 4.56803 19.7439 4.56717ZM12.0523 22.57C12.0523 22.674 12.011 22.7738 11.9374 22.8473C11.8639 22.9209 11.7641 22.9622 11.6601 22.9622C11.5561 22.9622 11.4563 22.9209 11.3828 22.8473C11.3093 22.7738 11.2679 22.674 11.2679 22.57V20.9818C11.2679 20.8778 11.3093 20.7781 11.3828 20.7045C11.4563 20.631 11.5561 20.5897 11.6601 20.5897C11.7641 20.5897 11.8639 20.631 11.9374 20.7045C12.011 20.7781 12.0523 20.8778 12.0523 20.9818V22.57ZM13.3902 22.57C13.393 22.6232 13.3849 22.6763 13.3665 22.7263C13.3481 22.7762 13.3197 22.8219 13.2831 22.8605C13.2464 22.8992 13.2023 22.9299 13.1534 22.9509C13.1045 22.9719 13.0518 22.9828 12.9986 22.9828C12.9453 22.9828 12.8927 22.9719 12.8437 22.9509C12.7948 22.9299 12.7507 22.8992 12.7141 22.8605C12.6774 22.8219 12.649 22.7762 12.6306 22.7263C12.6122 22.6763 12.6041 22.6232 12.6069 22.57V20.9818C12.6122 20.8815 12.6558 20.7871 12.7286 20.7179C12.8015 20.6488 12.8981 20.6103 12.9986 20.6103C13.099 20.6103 13.1956 20.6488 13.2685 20.7179C13.3413 20.7871 13.3849 20.8815 13.3902 20.9818V22.57ZM13.0002 19.2052C12.8547 19.2052 12.7125 19.162 12.5915 19.0812C12.4706 19.0004 12.3763 18.8855 12.3206 18.7511C12.2649 18.6167 12.2504 18.4688 12.2787 18.3261C12.3071 18.1834 12.3772 18.0523 12.4801 17.9495C12.5829 17.8466 12.714 17.7765 12.8567 17.7481C12.9994 17.7198 13.1473 17.7343 13.2817 17.79C13.4161 17.8457 13.531 17.94 13.6118 18.0609C13.6926 18.1819 13.7358 18.3241 13.7358 18.4696C13.7355 18.6646 13.6579 18.8515 13.52 18.9894C13.3821 19.1273 13.1952 19.2049 13.0002 19.2052ZM14.7335 22.57C14.7335 22.674 14.6922 22.7738 14.6187 22.8473C14.5451 22.9209 14.4454 22.9622 14.3414 22.9622C14.2373 22.9622 14.1376 22.9209 14.0641 22.8473C13.9905 22.7738 13.9492 22.674 13.9492 22.57V20.9818C13.9492 20.8778 13.9905 20.7781 14.0641 20.7045C14.1376 20.631 14.2373 20.5897 14.3414 20.5897C14.4454 20.5897 14.5451 20.631 14.6187 20.7045C14.6922 20.7781 14.7335 20.8778 14.7335 20.9818V22.57ZM13.0002 16.0418C12.5347 16.0402 12.082 15.8887 11.7093 15.6097C11.3367 15.3307 11.0637 14.9392 10.931 14.4929C10.7983 14.0467 10.8128 13.5696 10.9724 13.1323C11.132 12.695 11.4282 12.3207 11.8172 12.0649V8.28084C11.8172 7.96737 11.9417 7.66675 12.1634 7.4451C12.385 7.22344 12.6856 7.09892 12.9991 7.09892C13.3126 7.09892 13.6132 7.22344 13.8348 7.4451C14.0565 7.66675 14.181 7.96737 14.181 8.28084V12.0638C14.5703 12.3194 14.8669 12.6935 15.0269 13.1308C15.1869 13.5681 15.2017 14.0453 15.0692 14.4918C14.9367 14.9382 14.6639 15.33 14.2912 15.6092C13.9186 15.8884 13.4658 16.0401 13.0002 16.0418ZM19.7439 3.96375C20.4539 3.96397 21.1467 4.18217 21.7286 4.58884C21.6837 3.93276 21.3918 3.31808 20.9118 2.86861C20.4317 2.41913 19.7992 2.16825 19.1416 2.1665H6.85877C6.20135 2.16853 5.5691 2.41953 5.0893 2.86898C4.6095 3.31842 4.31778 3.93295 4.27285 4.58884C4.8548 4.18217 5.54757 3.96397 6.25752 3.96375H19.7439Z" fill="black"/>
</svg>
